<svg xmlns="http://www.w3.org/2000/svg" viewBox="0 0 120 120" role="img" aria-label="lynxr">
  <defs>
    <linearGradient id="lxr-glass" x1="10" y1="0" x2="110" y2="118" gradientUnits="userSpaceOnUse">
      <stop offset="0" stop-color="#ffb38a"/><stop offset=".48" stop-color="#ff7eb8"/><stop offset="1" stop-color="#7b61ff"/>
    </linearGradient>
    <linearGradient id="lxr-shade" x1="0" y1="14" x2="0" y2="108" gradientUnits="userSpaceOnUse">
      <stop offset="0" stop-color="#fff" stop-opacity=".2"/><stop offset=".5" stop-color="#fff" stop-opacity="0"/><stop offset="1" stop-color="#3a1478" stop-opacity=".32"/>
    </linearGradient>
    <filter id="lxr-soft" x="-40%" y="-80%" width="180%" height="260%"><feGaussianBlur stdDeviation="3"/></filter>
    <mask id="lxr-idle" maskUnits="userSpaceOnUse" x="-20" y="-20" width="160" height="160">
      <rect x="43" y="10" width="34" height="60" rx="17" fill="#fff" transform="rotate(-45 60 62)"/>
      <rect x="43" y="10" width="34" height="60" rx="17" fill="#fff" transform="rotate(45 60 62)"/>
      <rect x="43" y="10" width="34" height="60" rx="17" fill="#fff" transform="rotate(135 60 62)"/>
      <rect x="43" y="10" width="34" height="60" rx="17" fill="#fff" transform="rotate(-135 60 62)"/>
    </mask>
  </defs>
  <rect x="-20" y="-20" width="160" height="160" fill="url(#lxr-glass)" mask="url(#lxr-idle)"/>
  <rect x="-20" y="-20" width="160" height="160" fill="url(#lxr-shade)" mask="url(#lxr-idle)"/>
  <g mask="url(#lxr-idle)"><ellipse cx="42" cy="36" rx="30" ry="10" transform="rotate(-40 42 36)" fill="#fff" opacity=".4" filter="url(#lxr-soft)"/></g>
  <rect x="47" y="48.5" width="8" height="13" rx="4" fill="#fff"/>
  <rect x="65" y="48.5" width="8" height="13" rx="4" fill="#fff"/>
  <path d="M-5 0q5 4 10 0" transform="translate(60 70)" stroke="#fff" stroke-width="3" stroke-linecap="round" stroke-linejoin="round" fill="none"/>
</svg>
