<svg xmlns="http://www.w3.org/2000/svg" viewBox="0 0 1024 1024">
<g transform="translate(0,1024) scale(0.1,-0.1)" fill="#007eff">
<path d="M5795 8534 c-16 -2 -70 -9 -120 -15 -199 -24 -350 -64 -570 -150
-270 -107 -335 -153 -335 -241 0 -89 64 -158 153 -166 46 -3 71 4 214 62 330
133 508 175 778 183 503 15 922 -120 1295 -417 330 -263 547 -643 636 -1115
13 -66 18 -159 20 -352 3 -246 5 -265 25 -305 24 -47 76 -115 369 -473 227
-278 264 -325 259 -329 -2 -1 -83 -42 -179 -91 -96 -48 -188 -97 -203 -108
-45 -31 -85 -94 -96 -150 -5 -29 -15 -223 -21 -432 -6 -209 -15 -418 -20 -465
-23 -210 -87 -300 -236 -337 -59 -15 -91 -15 -323 -3 -202 10 -276 10 -342 1
-283 -40 -516 -195 -623 -415 -36 -76 -125 -307 -211 -551 -29 -82 -86 -238
-127 -345 -41 -107 -78 -203 -81 -213 -6 -15 -17 -10 -83 34 -314 211 -834
395 -1286 454 -142 18 -492 39 -525 31 -12 -4 -23 -4 -23 -1 0 11 136 326 275
635 272 606 315 701 498 1101 102 224 263 588 357 810 186 437 325 756 339
778 8 12 78 15 408 18 220 3 412 9 430 14 42 13 89 68 103 119 20 75 -25 166
-97 196 -48 20 -998 20 -1047 0 -48 -20 -67 -49 -136 -218 -247 -600 -472
-1132 -565 -1333 -20 -44 -41 -91 -47 -105 -10 -24 -11 -24 -24 20 -7 25 -53
214 -100 420 -47 206 -148 632 -224 945 -77 314 -175 725 -219 915 -78 338
-240 1010 -279 1162 -35 138 -81 183 -178 175 -64 -4 -105 -33 -133 -92 -11
-24 -111 -336 -220 -692 -110 -357 -259 -839 -331 -1073 -73 -234 -140 -450
-149 -480 l-17 -55 -810 -5 c-726 -4 -812 -7 -839 -21 -128 -71 -123 -250 9
-310 39 -18 83 -19 914 -19 958 0 911 -3 968 62 39 45 103 231 461 1355 70
222 130 403 133 403 7 0 2 19 229 -915 206 -846 381 -1558 492 -2005 l78 -314
-133 -306 c-74 -168 -186 -429 -251 -580 -64 -151 -160 -372 -211 -491 -105
-241 -113 -282 -73 -360 31 -61 60 -69 246 -69 510 0 855 -46 1241 -166 312
-96 559 -219 806 -401 52 -38 64 -43 112 -43 47 0 59 4 89 33 32 29 45 62 144
362 167 508 351 985 406 1058 40 52 116 104 200 138 60 24 63 24 440 24 373 0
381 1 445 23 203 73 322 188 385 369 44 126 55 229 69 657 11 307 17 411 27
423 8 8 81 48 164 88 82 40 178 92 213 115 111 75 151 184 102 285 -19 39
-170 237 -450 590 -70 88 -143 182 -163 208 l-37 49 0 225 c0 307 -30 496
-116 745 -115 331 -253 558 -469 773 -231 231 -462 383 -767 504 -216 85 -331
117 -538 146 -109 16 -440 28 -505 19z"/>
</g>
</svg>
