<svg width="2713" height="980" viewBox="0 0 2713 980" fill="none" xmlns="http://www.w3.org/2000/svg">
<path d="M473.885 171.052C529.961 169.988 584.5 179.317 635.495 202.54C654.182 185.472 672.76 175.904 699.042 178.126C719.105 179.847 737.606 189.468 750.346 204.802C764.275 221.351 770.939 244.404 768.756 265.709C766.522 288.198 755.131 308.842 737.167 322.937C754.912 343.574 767.949 381.148 771.998 408.055C781.09 471.503 764.32 535.912 725.343 587.263C748.538 610.086 757.553 646.185 748.577 676.951C743.65 693.863 735.468 706.25 722.935 718.528C741.08 733.556 759.561 756.366 768.272 778.13C792.881 839.623 714.185 887.118 665.548 906.024C654.253 910.297 635.185 914.627 623.975 908.202C606.275 898.057 596.427 864.307 589.873 846.34C585.94 836.424 578.017 814.133 576.022 804.344C545.569 809.708 517.046 812.622 485.947 811.467C399.436 808.254 305.165 775.501 244.612 712.84C225.605 693.171 211.455 670.767 212.655 642.941C213.664 619.571 224.372 597.668 241.614 581.765C221.204 554.021 207.67 525.886 199.866 492.243C187.308 438.109 190.758 373.424 221.949 325.676C196.309 306.035 181.849 278.191 184.261 245.941C185.763 225.846 194.306 207.867 209.663 194.369C223.693 182.038 243.407 176.352 262.005 177.807C286.272 179.703 302.792 190.186 318.504 207.735C327.305 201.968 344.007 195.332 353.936 191.961C392.56 178.868 433.035 171.813 473.885 171.052Z" fill="#1E1E1E"/>
<path d="M342.68 290.357C343.108 290.298 343.533 290.221 343.963 290.177C359.183 288.6 376.046 292.483 389.511 299.38C459.518 335.238 439.806 430.638 470.284 453.039C476.106 457.317 483.487 458.552 490.584 457.364C513.256 453.568 516.93 421.946 520.527 404.061C522.567 393.926 524.666 383.794 527.391 373.812C531.937 357.18 538.123 340.724 548.242 326.537C561.292 308.229 580.49 295.065 603.065 291.219C627.688 287.024 652.859 294.177 673.025 308.257C705.506 330.938 724.684 369.696 731.032 407.622C740.26 462.783 725.944 518.207 692.888 563.365C690.621 566.286 688.329 569.187 686.024 572.076C645.194 622.916 581.381 656.666 516.09 664.094C446.532 671.465 376.827 651.555 322.111 608.689C276.268 572.952 243.191 521.633 236.572 463.885C230.279 408.99 243.204 349.012 288.574 312.649C305.075 299.423 321.703 292.671 342.68 290.357Z" fill="#FEFBF6"/>
<path d="M473.777 484.675C490.566 484.418 510.235 483.655 526.36 488.174C537.357 491.256 546.287 503.808 541.244 514.877C533.831 531.128 514.665 541.488 498.741 548.281C501.712 562.699 508.97 573.066 524.377 575.968C529.95 577.098 541.625 579.548 541.98 586.78C542.716 601.762 524.119 599.934 514.497 597.141C506.116 594.703 500.633 590.894 494.557 585.415C492.071 583.021 489.404 579.834 487.079 577.212C475.12 590.392 461.211 601.705 441.321 598.372C436.122 597.503 429.609 590.97 431.926 585.338C436.049 575.32 450.109 577.32 458.199 572.66C468.767 566.845 472.401 559.055 475.895 548.332C460.468 541.145 418.349 517.511 437.815 494.681C445.43 485.754 462.48 485.038 473.777 484.675Z" fill="#362B2A"/>
<path d="M307.728 415.235C309.307 415.058 312.329 414.706 313.481 415.599C321.115 421.522 323.382 428.012 331.876 434.336C344.964 444.513 363.651 445.374 377.673 436.5C382.565 433.404 394.009 421.663 398.966 421.927C415.419 422.803 406.702 441.081 399.152 448.128C384.5 461.804 370.424 462.35 351.496 462.145C345.483 473.539 330.542 497.343 315.262 486.355C309.738 475.257 320.726 470.99 327.079 463.835C329.034 461.633 330.357 459.386 331.803 456.861L324.995 453.363C318.453 462.778 291.965 485.354 282.826 467.309C276.84 455.487 306.153 451.334 309.284 443.209C309.033 442.647 307.485 439.788 306.813 439.951C300.937 441.372 296.087 444.866 290.231 446.65C285.775 448.018 281.1 448.565 276.441 448.264C261.259 447.244 259.241 429.408 277.689 428.092C290.087 427.208 298.136 422.423 307.728 415.235Z" fill="#362B2A"/>
<path d="M659.179 415.182C670.338 414.142 671.009 421.482 680.947 425.078C687.024 427.724 696.264 426.877 702.037 429.706C712.873 435.019 710.974 444.819 699.712 447.362C687.224 450.182 675.497 444.458 665.223 438.444L662.098 443.219C671.1 450.996 678.855 452.265 687.366 458.795C696.012 465.433 687.514 475.025 676.963 473.33C663.912 471.232 654.704 463.054 646.535 453.354L639.839 456.753C644.017 462.453 648.143 466.878 653.316 471.731C656.699 474.905 657.778 476.127 658.837 480.601C654.717 496.643 640.885 488.353 633.472 480.041C628.184 474.116 624.225 468.374 620.312 461.516C600.326 464.217 567.187 455.891 564.223 430.671C563.067 420.809 573.56 419.759 580.056 425.3C583.382 428.137 588.212 432.869 591.925 435.267C598.57 439.558 606.235 442.072 614.171 442.559C627.564 443.252 640.143 437.482 648.996 427.589C652.664 423.492 654.814 419.07 659.179 415.182Z" fill="#362B2A"/>
<path d="M265.284 609.641C267.699 610.708 282.644 628.44 287.079 632.325C345.066 683.121 425.632 708.884 502.937 706.071C564.812 704.16 624.24 681.851 671.663 642.731C682.55 633.601 691.571 623.78 701.277 613.495C713.682 637.975 715.128 657.307 701.664 681.47C678.753 717.988 635.082 744.837 594.536 759.026C514.309 787.106 425.663 776.771 349.849 740.716C317.378 725.276 270.257 694.466 257.912 659.669C251.185 640.705 256.756 626.624 265.284 609.641Z" fill="#666564"/>
<path d="M697.002 744.493C705.151 749.413 724.524 777.837 727.294 787.861C729.883 797.219 731.64 804.419 726.68 813.707C712.939 839.444 673.523 860.236 646.647 869.34L644.323 870.013C641.152 868.109 618.57 802.977 615.006 794.127C640.739 786.026 676.661 762.282 697.002 744.493Z" fill="#666564"/>
<path d="M1060.92 285.16C1111.32 285.16 1152.95 298.413 1185.8 324.92C1219.03 351.427 1240.49 387.267 1250.2 432.44H1148.84C1141.37 414.147 1129.8 399.773 1114.12 389.32C1098.81 378.867 1080.52 373.64 1059.24 373.64C1031.24 373.64 1008.65 383.907 991.48 404.44C974.307 424.973 965.72 452.413 965.72 486.76C965.72 521.107 974.307 548.547 991.48 569.08C1008.65 589.24 1031.24 599.32 1059.24 599.32C1080.52 599.32 1098.81 594.093 1114.12 583.64C1129.8 573.187 1141.37 559 1148.84 541.08H1250.2C1240.49 585.88 1219.03 621.72 1185.8 648.6C1152.95 675.107 1111.32 688.36 1060.92 688.36C1022.47 688.36 988.68 679.96 959.56 663.16C930.44 645.987 907.853 622.093 891.8 591.48C876.12 560.867 868.28 525.96 868.28 486.76C868.28 447.56 876.12 412.653 891.8 382.04C907.853 351.427 930.44 327.72 959.56 310.92C988.68 293.747 1022.47 285.16 1060.92 285.16ZM1405.23 270.6V685H1309.47V270.6H1405.23ZM1623.1 368.6C1654.09 368.6 1681.72 375.133 1705.98 388.2C1730.62 400.893 1749.85 419.373 1763.66 443.64C1777.85 467.907 1784.94 496.28 1784.94 528.76C1784.94 561.24 1777.85 589.613 1763.66 613.88C1749.85 638.147 1730.62 656.813 1705.98 669.88C1681.72 682.573 1654.09 688.92 1623.1 688.92C1592.12 688.92 1564.3 682.573 1539.66 669.88C1515.02 656.813 1495.61 638.147 1481.42 613.88C1467.61 589.613 1460.7 561.24 1460.7 528.76C1460.7 496.28 1467.61 467.907 1481.42 443.64C1495.61 419.373 1515.02 400.893 1539.66 388.2C1564.3 375.133 1592.12 368.6 1623.1 368.6ZM1623.1 451.48C1604.81 451.48 1589.32 458.2 1576.62 471.64C1564.3 484.707 1558.14 503.747 1558.14 528.76C1558.14 553.773 1564.3 572.813 1576.62 585.88C1589.32 598.947 1604.81 605.48 1623.1 605.48C1641.4 605.48 1656.7 598.947 1669.02 585.88C1681.34 572.813 1687.5 553.773 1687.5 528.76C1687.5 503.747 1681.34 484.707 1669.02 471.64C1656.7 458.2 1641.4 451.48 1623.1 451.48ZM2137 520.36C2137 528.2 2136.07 536.787 2134.2 546.12H1917.48C1918.6 569.64 1924.57 586.627 1935.4 597.08C1946.23 607.16 1960.04 612.2 1976.84 612.2C1991.03 612.2 2002.79 608.653 2012.12 601.56C2021.45 594.467 2027.61 585.32 2030.6 574.12H2131.96C2127.85 596.147 2118.89 615.933 2105.08 633.48C2091.27 650.653 2073.72 664.28 2052.44 674.36C2031.16 684.067 2007.45 688.92 1981.32 688.92C1950.71 688.92 1923.45 682.573 1899.56 669.88C1876.04 656.813 1857.56 638.147 1844.12 613.88C1830.68 589.613 1823.96 561.24 1823.96 528.76C1823.96 495.907 1830.49 467.533 1843.56 443.64C1857 419.373 1875.67 400.893 1899.56 388.2C1923.45 375.133 1950.71 368.6 1981.32 368.6C2012.31 368.6 2039.56 374.947 2063.08 387.64C2086.6 400.333 2104.71 418.253 2117.4 441.4C2130.47 464.173 2137 490.493 2137 520.36ZM2040.12 505.8C2040.49 485.267 2034.89 469.96 2023.32 459.88C2012.12 449.427 1998.12 444.2 1981.32 444.2C1963.77 444.2 1949.21 449.427 1937.64 459.88C1926.07 470.333 1919.53 485.64 1918.04 505.8H2040.12ZM2264.76 372.52L2339.8 564.04L2409.8 372.52H2515.64L2320.76 833.96H2215.48L2288.84 673.24L2157.8 372.52H2264.76Z" fill="#1E1E1E"/>
</svg>
